<?xml version="1.0" encoding="UTF-8" standalone="no"?>
<svg
   width="23.999998"
   height="24"
   viewBox="0 0 23.999998 24"
   fill="none"
   version="1.1"
   id="svg8"
   sodipodi:docname="icon.svg"
   inkscape:version="1.1 (c68e22c387, 2021-05-23)"
   xmlns:inkscape="http://www.inkscape.org/namespaces/inkscape"
   xmlns:sodipodi="http://sodipodi.sourceforge.net/DTD/sodipodi-0.dtd"
   xmlns="http://www.w3.org/2000/svg"
   xmlns:svg="http://www.w3.org/2000/svg">
  <defs
     id="defs12" />
  <sodipodi:namedview
     id="namedview10"
     pagecolor="#ffffff"
     bordercolor="#666666"
     borderopacity="1.0"
     inkscape:pageshadow="2"
     inkscape:pageopacity="0.0"
     inkscape:pagecheckerboard="0"
     showgrid="false"
     width="24px"
     fit-margin-top="0"
     fit-margin-left="0"
     fit-margin-right="0"
     fit-margin-bottom="0"
     inkscape:zoom="40.888889"
     inkscape:cx="11.482337"
     inkscape:cy="10.210598"
     inkscape:window-width="3440"
     inkscape:window-height="1369"
     inkscape:window-x="-8"
     inkscape:window-y="-8"
     inkscape:window-maximized="1"
     inkscape:current-layer="svg8" />
  <g
     id="g833"
     transform="matrix(0.05797101,0,0,0.05797101,0,3.5000008)">
    <path
       d="M 385.864,181.909 H 69.6336 C 56.1328,191.162 38.4728,192.314 23.8302,184.894 9.18763,177.475 0,162.72 0,146.625 0,130.53 9.18815,115.776 23.8302,108.356 c 14.6426,-7.419 32.3026,-6.269 45.8034,2.985 H 385.864 c 15.539,0 28.136,12.286 28.136,27.443 v 15.682 c 0,15.156 -12.597,27.443 -28.136,27.443 z M 71.1411,146.625 c 0,-6.967 -2.8373,-13.648 -7.8878,-18.574 -5.0505,-4.926 -11.9004,-7.694 -19.0429,-7.694 -7.1424,0 -13.9923,2.768 -19.0428,7.694 -5.0505,4.926 -7.8878,11.607 -7.8878,18.574 0,6.966 2.8373,13.648 7.8878,18.574 5.0505,4.926 11.9004,7.693 19.0428,7.693 7.1425,0 13.9924,-2.767 19.0429,-7.693 5.0505,-4.926 7.8878,-11.608 7.8878,-18.574 z"
       fill="#000000"
       id="path2" />
    <path
       d="m 72.225,250.125 c 0,-6.966 -2.8805,-13.647 -8.0079,-18.574 -5.1275,-4.926 -12.0818,-7.693 -19.333,-7.693 -7.2513,0 -14.2056,2.767 -19.333,7.693 -5.1274,4.927 -8.008,11.608 -8.008,18.574 0,6.967 2.8806,13.648 8.008,18.574 5.1274,4.926 12.0817,7.694 19.333,7.694 7.2512,0 14.2055,-2.768 19.333,-7.694 5.1274,-4.926 8.0079,-11.607 8.0079,-18.574 z m 278.71,35.284 H 70.6946 C 56.9881,294.662 39.059,295.814 24.1933,288.394 9.32761,280.975 0,266.219 0,250.125 c 0,-16.094 9.32814,-30.849 24.1933,-38.269 14.8657,-7.419 32.7948,-6.269 46.5013,2.985 H 350.935 c 15.776,0 28.565,12.286 28.565,27.443 v 15.682 c 0,15.156 -12.789,27.443 -28.565,27.443 z"
       fill="#000000"
       id="path4" />
    <path
       d="M 414,50.9659 C 414,66.1224 401.403,78.409 385.864,78.409 H 69.6337 C 56.1329,87.6624 38.4728,88.8137 23.8302,81.394 9.18763,73.9748 0,59.2197 0,43.125 0,27.0309 9.18815,12.2758 23.8302,4.85601 38.4337,-2.54392 56.039,-1.41853 69.5257,7.76735 c 0.036,0.02453 0.0718,0.04904 0.1078,0.07366 H 385.864 C 401.403,7.84102 414,20.1276 414,35.2841 Z M 71.1417,43.1249 c 0,-6.9665 -2.8374,-13.6477 -7.8878,-18.5738 -5.0505,-4.9261 -11.9004,-7.6935 -19.0429,-7.6935 -7.1424,0 -13.9923,2.7674 -19.0428,7.6935 -5.0505,4.9261 -7.8878,11.6073 -7.8878,18.5738 0,6.9665 2.8373,13.6478 7.8878,18.5738 5.0505,4.9261 11.9004,7.6936 19.0428,7.6936 7.1425,0 13.9924,-2.7675 19.0429,-7.6936 5.0504,-4.926 7.8878,-11.6073 7.8878,-18.5738 z"
       fill="#000000"
       id="path6" />
  </g>
</svg>
