<svg width="414" height="294" viewBox="0 0 414 294" fill="none" xmlns="http://www.w3.org/2000/svg">
<path d="M385.864 181.909L69.6336 181.909C56.1328 191.162 38.4728 192.314 23.8302 184.894C9.18763 177.475 0 162.72 0 146.625C0 130.53 9.18815 115.776 23.8302 108.356C38.4728 100.937 56.1328 102.087 69.6336 111.341L385.864 111.341C401.403 111.341 414 123.627 414 138.784V154.466C414 169.622 401.403 181.909 385.864 181.909V181.909ZM71.1411 146.625C71.1411 139.658 68.3038 132.977 63.2533 128.051C58.2028 123.125 51.3529 120.357 44.2104 120.357C37.068 120.357 30.2181 123.125 25.1676 128.051C20.1171 132.977 17.2798 139.658 17.2798 146.625C17.2798 153.591 20.1171 160.273 25.1676 165.199C30.2181 170.125 37.068 172.892 44.2104 172.892C51.3529 172.892 58.2028 170.125 63.2533 165.199C68.3038 160.273 71.1411 153.591 71.1411 146.625V146.625Z" fill="black"/>
<path d="M72.225 250.125C72.225 243.159 69.3445 236.478 64.2171 231.551C59.0896 226.625 52.1353 223.858 44.8841 223.858C37.6328 223.858 30.6785 226.625 25.5511 231.551C20.4237 236.478 17.5431 243.159 17.5431 250.125C17.5431 257.092 20.4237 263.773 25.5511 268.699C30.6785 273.625 37.6328 276.393 44.8841 276.393C52.1353 276.393 59.0896 273.625 64.2171 268.699C69.3445 263.773 72.225 257.092 72.225 250.125V250.125ZM350.935 285.409H70.6946C56.9881 294.662 39.059 295.814 24.1933 288.394C9.32761 280.975 0 266.219 0 250.125C0 234.031 9.32814 219.276 24.1933 211.856C39.059 204.437 56.9881 205.587 70.6946 214.841L350.935 214.841C366.711 214.841 379.5 227.127 379.5 242.284V257.966C379.5 273.122 366.711 285.409 350.935 285.409V285.409Z" fill="black"/>
<path d="M414 50.9659C414 66.1224 401.403 78.409 385.864 78.409L69.6337 78.409C56.1329 87.6624 38.4728 88.8137 23.8302 81.394C9.18763 73.9748 0 59.2197 0 43.125C0 27.0309 9.18815 12.2758 23.8302 4.85601C38.4337 -2.54392 56.039 -1.41853 69.5257 7.76735C69.5617 7.79188 69.5975 7.81639 69.6335 7.84101L385.864 7.84101C401.403 7.84102 414 20.1276 414 35.2841L414 50.9659ZM71.1417 43.1249C71.1417 36.1584 68.3043 29.4772 63.2539 24.5511C58.2034 19.625 51.3535 16.8576 44.211 16.8576C37.0686 16.8576 30.2187 19.625 25.1682 24.5511C20.1177 29.4772 17.2804 36.1584 17.2804 43.1249C17.2804 50.0914 20.1177 56.7727 25.1682 61.6987C30.2187 66.6248 37.0686 69.3923 44.211 69.3923C51.3535 69.3923 58.2034 66.6248 63.2539 61.6987C68.3043 56.7727 71.1417 50.0914 71.1417 43.1249V43.1249Z" fill="black"/>
</svg>
