<?xml version="1.0" encoding="UTF-8" standalone="no"?>
<svg
   xmlns:dc="http://purl.org/dc/elements/1.1/"
   xmlns:cc="http://creativecommons.org/ns#"
   xmlns:rdf="http://www.w3.org/1999/02/22-rdf-syntax-ns#"
   xmlns:svg="http://www.w3.org/2000/svg"
   xmlns="http://www.w3.org/2000/svg"
   xmlns:sodipodi="http://sodipodi.sourceforge.net/DTD/sodipodi-0.dtd"
   xmlns:inkscape="http://www.inkscape.org/namespaces/inkscape"
   viewBox="0 0 320 200"
   width="320"
   height="200"
   version="1.1"
   id="svg4"
   sodipodi:docname="logowide.svg"
   inkscape:version="1.0.2-2 (e86c870879, 2021-01-15)"
   inkscape:export-filename="E:\gh\jacdac-docs\jacdac-ts\jacdac-spec\icons\logowide.png"
   inkscape:export-xdpi="96"
   inkscape:export-ydpi="96">
  <metadata
     id="metadata10">
    <rdf:RDF>
      <cc:Work
         rdf:about="">
        <dc:format>image/svg+xml</dc:format>
        <dc:type
           rdf:resource="http://purl.org/dc/dcmitype/StillImage" />
        <dc:title />
      </cc:Work>
    </rdf:RDF>
  </metadata>
  <defs
     id="defs8" />
  <sodipodi:namedview
     pagecolor="#ffffff"
     bordercolor="#666666"
     borderopacity="1"
     objecttolerance="10"
     gridtolerance="10"
     guidetolerance="10"
     inkscape:pageopacity="0"
     inkscape:pageshadow="2"
     inkscape:window-width="3840"
     inkscape:window-height="2066"
     id="namedview6"
     showgrid="false"
     inkscape:zoom="3.7123106"
     inkscape:cx="57.682575"
     inkscape:cy="153.1761"
     inkscape:window-x="2869"
     inkscape:window-y="-11"
     inkscape:window-maximized="1"
     inkscape:current-layer="svg4"
     inkscape:document-rotation="0" />
  <path
     fill="#ffd700"
     stroke="none"
     d="M 172.22927,39.512613 V 146.44218 a 14.952958,14.952958 0 1 1 -24.46559,0 V 39.512613 c 0,-5.255806 4.26319,-9.512626 9.51264,-9.512626 h 5.44033 c 5.24945,0 9.51262,4.263183 9.51262,9.512626 z M 159.9933,145.92043 a 9.1085785,9.1085785 0 1 0 0,18.21715 9.1085785,9.1085785 0 0 0 0,-18.21715 z m 34.52542,0.007 a 9.1085785,9.1085785 0 1 0 0,18.21715 9.1085785,9.1085785 0 0 0 0,-18.21715 z m 12.22962,-92.816462 v 93.331212 a 14.952958,14.952958 0 1 1 -24.45923,0 V 53.110261 c 0,-5.255807 4.26319,-9.512626 9.51263,-9.512626 h 5.43397 c 5.2558,0 9.51263,4.263182 9.51263,9.512626 z M 128.19758,30.01342 c 5.25581,0 9.51264,4.25682 9.51264,9.506263 V 146.44218 a 14.952958,14.952958 0 1 1 -24.48469,0.0382 l 0.0248,-0.0382 V 39.518976 c 0,-5.255806 4.26318,-9.518989 9.51262,-9.518989 z m -2.71699,115.92044 a 9.105397,9.105397 0 1 0 0,18.21079 9.105397,9.105397 0 0 0 0,-18.21079 z"
     id="path2"
     style="stroke-width:6.36297" />
</svg>
