<svg width="793.7" height="1122.5" xmlns="http://www.w3.org/2000/svg">
    <path fill="gold" stroke="none"
        d="M-7201.8 661.71v-30.823M-7147.9 576.95h606.26M-6541.6 715.65h-606.26M-7147.9 772.67h606.26M-6541.6 911.38h-606.26M-7201.8 857.44v-30.823M-7070.8 968.4h529.2M-6541.6 1107.1h-529.2M-7124.8 1053.2v-30.823M459.29 229.39v606.26c18.188 25.883 20.451 59.74 5.867 87.812-14.583 28.072-43.585 45.686-75.22 45.686s-60.636-17.615-75.22-45.686a84.765 84.765 0 015.867-87.812V229.39c0-29.791 24.15-53.941 53.941-53.941h30.823c29.791 0 53.941 24.15 53.941 53.941zm-69.353 603.37a51.63 51.63 0 100 103.26 51.63 51.63 0 100-103.26zM585.69 832.79a51.63 51.63 0 100 103.26 51.63 51.63 0 100-103.26zm69.352-526.31v529.2c18.188 25.883 20.451 59.74 5.867 87.812-14.583 28.072-43.586 45.686-75.22 45.686a84.766 84.766 0 01-75.22-45.686 84.765 84.765 0 015.868-87.812v-529.2c0-29.791 24.15-53.941 53.94-53.941h30.824c29.79 0 53.94 24.15 53.94 53.941zM209.64 175.49c29.791 0 53.941 24.15 53.941 53.941v606.26c18.188 25.883 20.451 59.74 5.867 87.812-14.583 28.072-43.585 45.686-75.22 45.686a84.766 84.766 0 01-75.22-45.686c-14.545-27.997-12.333-61.749 5.723-87.605l.144-.207v-606.26c0-29.79 24.15-53.94 53.941-53.94zM194.228 832.8a51.63 51.63 0 100 103.26 51.63 51.63 0 100-103.26z" />
</svg>